<svg xmlns="http://www.w3.org/2000/svg" width="83" height="102" viewBox="0 0 83 102"><g><g><g><path fill="none" stroke="#d8a354" stroke-miterlimit="20" stroke-width="2" d="M41.627 2v0S20.157 18.16 1 19.087v43.976C5.551 81.651 41.627 101 41.627 101v0s26-13.009 40.373-36.475V20.108C63.92 18.065 41.627 2 41.627 2z"/></g><g><path fill="none" stroke="#d8a354" stroke-miterlimit="20" stroke-width="2" d="M41 12v0S25 25.122 9 25.122V58"/></g><g><path fill="none" stroke="#d8a354" stroke-miterlimit="20" stroke-width="2" d="M40 90s28.485-14.139 33-32"/></g><g><path fill="none" stroke="#d8a354" stroke-miterlimit="20" stroke-width="2" d="M58.507 34v0L65 41.277v0L38.06 69v0L23 53.643v0l6.597-5.68v0l8.463 7.624v0z"/></g></g></g></svg>