<svg xmlns="http://www.w3.org/2000/svg" width="95" height="94" viewBox="0 0 95 94"><g><g><g><path fill="none" stroke="#d8a354" stroke-miterlimit="20" stroke-width="2" d="M1 1v0h12v12H1v0z"/></g><g><path fill="none" stroke="#d8a354" stroke-miterlimit="20" stroke-width="2" d="M1 81v0h12v12H1v0z"/></g><g><path fill="none" stroke="#d8a354" stroke-miterlimit="20" stroke-width="2" d="M82 1v0h12v12H82v0z"/></g><g><path fill="none" stroke="#d8a354" stroke-miterlimit="20" stroke-width="2" d="M82 81v0h12v12H82v0z"/></g><g><path fill="none" stroke="#d8a354" stroke-miterlimit="20" stroke-width="2" d="M7.5 80V14"/></g><g><path fill="none" stroke="#d8a354" stroke-miterlimit="20" stroke-width="2" d="M14 7.5h67"/></g><g><path fill="none" stroke="#d8a354" stroke-miterlimit="20" stroke-width="2" d="M87.5 14v66"/></g><g><path fill="none" stroke="#d8a354" stroke-miterlimit="20" stroke-width="2" d="M81 86.5H14"/></g><g><path fill="none" stroke="#d8a354" stroke-miterlimit="20" stroke-width="2" d="M25 47.573v0L48.467 24v0L71 47.573v0L48.467 70v0z"/></g><g><path fill="none" stroke="#d8a354" stroke-miterlimit="20" stroke-width="2" d="M47.5 24v-8"/></g><g><path fill="none" stroke="#d8a354" stroke-miterlimit="20" stroke-width="2" d="M70 47.5h9"/></g><g><path fill="none" stroke="#d8a354" stroke-miterlimit="20" stroke-width="2" d="M47.5 69v9"/></g><g><path fill="none" stroke="#d8a354" stroke-miterlimit="20" stroke-width="2" d="M24 47.5h-9"/></g><g><path fill="none" stroke="#d8a354" stroke-miterlimit="20" stroke-width="2" d="M36 46.869v0L47.06 35v0L58 46.294v0L47.298 58v0z"/></g></g></g></svg>