<svg xmlns="http://www.w3.org/2000/svg" width="67" height="109" viewBox="0 0 67 109"><g><g><g><path fill="none" stroke="#d8a354" stroke-miterlimit="20" stroke-width="2" d="M34 19a4 4 0 1 0 0-8 4 4 0 0 0 0 8z"/></g><g><path fill="none" stroke="#d8a354" stroke-miterlimit="20" stroke-width="2" d="M34 66a4 4 0 1 0 0-8 4 4 0 0 0 0 8z"/></g><g><path fill="none" stroke="#d8a354" stroke-miterlimit="20" stroke-width="2" d="M34 98a4 4 0 1 0 0-8 4 4 0 0 0 0 8z"/></g><g><path fill="none" stroke="#d8a354" stroke-miterlimit="20" stroke-width="2" d="M62 74a4 4 0 1 0 0-8 4 4 0 0 0 0 8z"/></g><g><path fill="none" stroke="#d8a354" stroke-miterlimit="20" stroke-width="2" d="M62 43a4 4 0 1 0 0-8 4 4 0 0 0 0 8z"/></g><g><path fill="none" stroke="#d8a354" stroke-miterlimit="20" stroke-width="2" d="M5 43a4 4 0 1 0 0-8 4 4 0 0 0 0 8z"/></g><g><path fill="none" stroke="#d8a354" stroke-miterlimit="20" stroke-width="2" d="M5 74a4 4 0 1 0 0-8 4 4 0 0 0 0 8z"/></g><g><path fill="none" stroke="#d8a354" stroke-miterlimit="20" stroke-width="2" d="M8 73l22 18"/></g><g><path fill="none" stroke="#d8a354" stroke-miterlimit="20" stroke-width="2" d="M37 91l22-18"/></g><g><path fill="none" stroke="#d8a354" stroke-miterlimit="20" stroke-width="2" d="M62.5 67V43"/></g><g><path fill="none" stroke="#d8a354" stroke-miterlimit="20" stroke-width="2" d="M59 36L36 17"/></g><g><path fill="none" stroke="#d8a354" stroke-miterlimit="20" stroke-width="2" d="M30 17L7 36"/></g><g><path fill="none" stroke="#d8a354" stroke-miterlimit="20" stroke-width="2" d="M7 42l23 18"/></g><g><path fill="none" stroke="#d8a354" stroke-miterlimit="20" stroke-width="2" d="M37 60l23-19"/></g><g><path fill="none" stroke="#d8a354" stroke-miterlimit="20" stroke-width="2" d="M51.97 88c1.027 22.35-24.843 26.47-34.97 9.819"/></g><g><path fill="none" stroke="#d8a354" stroke-miterlimit="20" stroke-width="2" d="M16.03 21C15.003-1.35 40.873-5.47 51 11.181"/></g></g></g></svg>